<svg width="258" height="374" viewBox="0 0 258 374" fill="none" xmlns="http://www.w3.org/2000/svg">
<path d="M131.405 94.0055C131.405 81.1375 136.997 68.7965 146.949 59.6974C156.901 50.5984 170.399 45.4866 184.473 45.4866C198.547 45.4866 212.045 50.5984 221.997 59.6974M131.405 94.0055C131.405 81.1375 125.814 68.7965 115.862 59.6974C105.91 50.5984 92.4123 45.4866 78.3379 45.4866C64.2635 45.4866 50.7656 50.5984 40.8135 59.6974M131.405 94.0055V106.135" stroke="white" stroke-width="25.2703" stroke-linecap="round" stroke-linejoin="round"/>
<path fill-rule="evenodd" clip-rule="evenodd" d="M128.562 374C210.375 280.5 257.125 199.576 257.125 128.562C257.125 94.4656 243.58 61.7652 219.47 37.6551C195.36 13.5449 162.659 0 128.562 0C94.4656 0 61.7652 13.5449 37.6551 37.6551C13.5449 61.7652 0 94.4656 0 128.562C0 199.576 46.75 280.5 128.562 374ZM200.354 202.88C219.31 183.924 229.96 158.214 229.96 131.405C229.96 104.597 219.31 78.8866 200.354 59.9303C181.397 40.9739 155.687 30.3243 128.878 30.3243C102.07 30.3243 76.3597 40.9739 57.4034 59.9303C38.447 78.8866 27.7974 104.597 27.7974 131.405C27.7974 158.214 38.447 183.924 57.4034 202.88C76.3597 221.837 102.07 232.486 128.878 232.486C155.687 232.486 181.397 221.837 200.354 202.88ZM142.725 357.522C138.129 362.971 133.407 368.464 128.562 374C123.722 368.468 119.005 362.981 114.413 357.536C116.477 342.885 115.745 327.833 112.096 313.198C104.638 283.284 85.602 257.558 59.1758 241.68C48.8207 235.458 37.6632 230.948 26.1224 228.212C22.4781 220.685 19.2 213.256 16.2976 205.922C34.9731 208.266 53.1424 214.47 69.5879 224.351C97.4058 241.066 118.248 267.076 128.57 297.591C138.891 267.076 159.733 241.066 187.551 224.351C203.993 214.472 222.157 208.269 240.827 205.924C237.924 213.259 234.646 220.688 231.001 228.216C219.466 230.952 208.314 235.461 197.963 241.68C171.537 257.558 152.501 283.284 145.043 313.198C141.395 327.829 140.663 342.875 142.725 357.522Z" fill="white"/>
<path d="M90.9731 106.135C90.9731 110.156 89.3757 114.013 86.5322 116.856C83.6888 119.7 79.8322 121.297 75.811 121.297C71.7897 121.297 67.9332 119.7 65.0897 116.856C62.2462 114.013 60.6488 110.156 60.6488 106.135C60.6488 102.114 62.2462 98.2573 65.0897 95.4138C67.9332 92.5703 71.7897 90.9729 75.811 90.9729C79.8322 90.9729 83.6888 92.5703 86.5322 95.4138C89.3757 98.2573 90.9731 102.114 90.9731 106.135Z" fill="white" stroke="white" stroke-width="10.1081" stroke-linejoin="round"/>
<path d="M202.162 106.135C202.162 110.156 200.565 114.013 197.721 116.856C194.878 119.7 191.021 121.297 187 121.297C182.979 121.297 179.122 119.7 176.279 116.856C173.435 114.013 171.838 110.156 171.838 106.135C171.838 102.114 173.435 98.2573 176.279 95.4138C179.122 92.5703 182.979 90.9729 187 90.9729C191.021 90.9729 194.878 92.5703 197.721 95.4138C200.565 98.2573 202.162 102.114 202.162 106.135Z" fill="white" stroke="white" stroke-width="10.1081" stroke-linejoin="round"/>
<path d="M138.987 108.03C138.987 111.869 136.23 116.243 131.405 121.297C126.581 116.243 123.824 111.869 123.824 108.03C123.824 106.187 124.623 104.42 126.045 103.116C127.467 101.813 129.395 101.081 131.405 101.081C133.416 101.081 135.344 101.813 136.766 103.116C138.188 104.42 138.987 106.187 138.987 108.03Z" fill="white" stroke="white" stroke-width="10.1081" stroke-linejoin="round"/>
</svg>
