<svg width="778" height="322" viewBox="0 0 778 322" fill="none" xmlns="http://www.w3.org/2000/svg">
<mask id="path-1-outside-1_630_80" maskUnits="userSpaceOnUse" x="277.865" y="98.6348" width="404" height="137" fill="black">
<rect fill="white" x="277.865" y="98.6348" width="404" height="137"/>
<path d="M281.092 167.298C281.092 158.238 282.776 149.759 286.145 141.861C289.63 133.962 294.334 127.051 300.258 121.127C306.181 115.203 313.093 110.557 320.991 107.189C328.89 103.704 337.369 101.962 346.429 101.962C355.489 101.962 363.968 103.704 371.866 107.189C379.765 110.557 386.676 115.203 392.6 121.127C398.524 127.051 403.17 133.962 406.538 141.861C410.023 149.759 411.765 158.238 411.765 167.298C411.765 176.358 410.023 184.837 406.538 192.736C403.17 200.634 398.524 207.546 392.6 213.469C386.676 219.393 379.765 224.097 371.866 227.582C363.968 230.951 355.489 232.635 346.429 232.635C337.369 232.635 328.89 230.951 320.991 227.582C313.093 224.097 306.181 219.393 300.258 213.469C294.334 207.546 289.63 200.634 286.145 192.736C282.776 184.837 281.092 176.358 281.092 167.298ZM296.947 167.298C296.947 174.151 298.225 180.598 300.78 186.638C303.452 192.562 306.995 197.789 311.408 202.319C315.938 206.732 321.165 210.217 327.089 212.772C333.129 215.328 339.576 216.606 346.429 216.606C353.166 216.606 359.554 215.328 365.594 212.772C371.634 210.217 376.861 206.732 381.275 202.319C385.689 197.789 389.173 192.562 391.729 186.638C394.4 180.598 395.736 174.151 395.736 167.298C395.736 160.561 394.4 154.173 391.729 148.133C389.173 142.093 385.689 136.866 381.275 132.452C376.861 128.038 371.634 124.554 365.594 121.998C359.554 119.327 353.166 117.991 346.429 117.991C339.576 117.991 333.129 119.327 327.089 121.998C321.165 124.554 315.938 128.038 311.408 132.452C306.995 136.866 303.452 142.093 300.78 148.133C298.225 154.173 296.947 160.561 296.947 167.298ZM552.643 101.962V196.046C552.643 201.157 551.656 205.919 549.681 210.333C547.823 214.747 545.209 218.638 541.841 222.007C538.589 225.259 534.697 227.872 530.167 229.847C525.754 231.706 521.049 232.635 516.055 232.635C510.131 232.635 504.672 231.415 499.677 228.976C494.799 226.421 490.675 223.052 487.307 218.871C483.938 223.052 479.815 226.421 474.936 228.976C470.058 231.415 464.657 232.635 458.733 232.635C453.622 232.635 448.86 231.706 444.446 229.847C440.032 227.872 436.141 225.259 432.772 222.007C429.52 218.638 426.907 214.747 424.932 210.333C423.074 205.919 422.144 201.157 422.144 196.046V101.962H437.999V196.046C437.999 198.834 438.522 201.506 439.567 204.061C440.729 206.616 442.239 208.823 444.097 210.682C445.956 212.54 448.163 214.05 450.718 215.212C453.274 216.257 455.945 216.78 458.733 216.78C461.52 216.78 464.192 216.257 466.747 215.212C469.303 214.05 471.51 212.54 473.368 210.682C475.227 208.823 476.679 206.674 477.724 204.235C478.885 201.68 479.466 198.95 479.466 196.046V159.284H495.321V196.395C495.321 199.182 495.844 201.796 496.889 204.235C498.051 206.674 499.561 208.823 501.419 210.682C503.394 212.54 505.601 213.992 508.04 215.037C510.595 216.083 513.267 216.606 516.055 216.606C518.959 216.606 521.63 216.083 524.069 215.037C526.625 213.876 528.832 212.366 530.69 210.507C532.549 208.649 534 206.5 535.046 204.061C536.207 201.506 536.788 198.834 536.788 196.046V101.962H552.643ZM677.322 210.333C671.282 217.186 664.08 222.646 655.717 226.711C647.354 230.66 638.236 232.635 628.363 232.635C619.303 232.635 610.824 230.951 602.925 227.582C595.027 224.097 588.115 219.393 582.192 213.469C576.268 207.546 571.564 200.634 568.079 192.736C564.71 184.837 563.026 176.358 563.026 167.298V102.136H578.881V167.298C578.881 174.151 580.159 180.598 582.714 186.638C585.386 192.562 588.929 197.789 593.342 202.319C597.872 206.732 603.099 210.275 609.023 212.947C615.063 215.502 621.51 216.78 628.363 216.78C635.797 216.78 642.65 215.27 648.922 212.25C655.31 209.23 660.77 205.106 665.3 199.879L677.322 210.333Z"/>
</mask>
<path d="M281.092 167.298C281.092 158.238 282.776 149.759 286.145 141.861C289.63 133.962 294.334 127.051 300.258 121.127C306.181 115.203 313.093 110.557 320.991 107.189C328.89 103.704 337.369 101.962 346.429 101.962C355.489 101.962 363.968 103.704 371.866 107.189C379.765 110.557 386.676 115.203 392.6 121.127C398.524 127.051 403.17 133.962 406.538 141.861C410.023 149.759 411.765 158.238 411.765 167.298C411.765 176.358 410.023 184.837 406.538 192.736C403.17 200.634 398.524 207.546 392.6 213.469C386.676 219.393 379.765 224.097 371.866 227.582C363.968 230.951 355.489 232.635 346.429 232.635C337.369 232.635 328.89 230.951 320.991 227.582C313.093 224.097 306.181 219.393 300.258 213.469C294.334 207.546 289.63 200.634 286.145 192.736C282.776 184.837 281.092 176.358 281.092 167.298ZM296.947 167.298C296.947 174.151 298.225 180.598 300.78 186.638C303.452 192.562 306.995 197.789 311.408 202.319C315.938 206.732 321.165 210.217 327.089 212.772C333.129 215.328 339.576 216.606 346.429 216.606C353.166 216.606 359.554 215.328 365.594 212.772C371.634 210.217 376.861 206.732 381.275 202.319C385.689 197.789 389.173 192.562 391.729 186.638C394.4 180.598 395.736 174.151 395.736 167.298C395.736 160.561 394.4 154.173 391.729 148.133C389.173 142.093 385.689 136.866 381.275 132.452C376.861 128.038 371.634 124.554 365.594 121.998C359.554 119.327 353.166 117.991 346.429 117.991C339.576 117.991 333.129 119.327 327.089 121.998C321.165 124.554 315.938 128.038 311.408 132.452C306.995 136.866 303.452 142.093 300.78 148.133C298.225 154.173 296.947 160.561 296.947 167.298ZM552.643 101.962V196.046C552.643 201.157 551.656 205.919 549.681 210.333C547.823 214.747 545.209 218.638 541.841 222.007C538.589 225.259 534.697 227.872 530.167 229.847C525.754 231.706 521.049 232.635 516.055 232.635C510.131 232.635 504.672 231.415 499.677 228.976C494.799 226.421 490.675 223.052 487.307 218.871C483.938 223.052 479.815 226.421 474.936 228.976C470.058 231.415 464.657 232.635 458.733 232.635C453.622 232.635 448.86 231.706 444.446 229.847C440.032 227.872 436.141 225.259 432.772 222.007C429.52 218.638 426.907 214.747 424.932 210.333C423.074 205.919 422.144 201.157 422.144 196.046V101.962H437.999V196.046C437.999 198.834 438.522 201.506 439.567 204.061C440.729 206.616 442.239 208.823 444.097 210.682C445.956 212.54 448.163 214.05 450.718 215.212C453.274 216.257 455.945 216.78 458.733 216.78C461.52 216.78 464.192 216.257 466.747 215.212C469.303 214.05 471.51 212.54 473.368 210.682C475.227 208.823 476.679 206.674 477.724 204.235C478.885 201.68 479.466 198.95 479.466 196.046V159.284H495.321V196.395C495.321 199.182 495.844 201.796 496.889 204.235C498.051 206.674 499.561 208.823 501.419 210.682C503.394 212.54 505.601 213.992 508.04 215.037C510.595 216.083 513.267 216.606 516.055 216.606C518.959 216.606 521.63 216.083 524.069 215.037C526.625 213.876 528.832 212.366 530.69 210.507C532.549 208.649 534 206.5 535.046 204.061C536.207 201.506 536.788 198.834 536.788 196.046V101.962H552.643ZM677.322 210.333C671.282 217.186 664.08 222.646 655.717 226.711C647.354 230.66 638.236 232.635 628.363 232.635C619.303 232.635 610.824 230.951 602.925 227.582C595.027 224.097 588.115 219.393 582.192 213.469C576.268 207.546 571.564 200.634 568.079 192.736C564.71 184.837 563.026 176.358 563.026 167.298V102.136H578.881V167.298C578.881 174.151 580.159 180.598 582.714 186.638C585.386 192.562 588.929 197.789 593.342 202.319C597.872 206.732 603.099 210.275 609.023 212.947C615.063 215.502 621.51 216.78 628.363 216.78C635.797 216.78 642.65 215.27 648.922 212.25C655.31 209.23 660.77 205.106 665.3 199.879L677.322 210.333Z" fill="white"/>
<path d="M286.145 141.861L283.488 140.688L283.481 140.705L283.474 140.721L286.145 141.861ZM300.258 121.127L298.204 119.074L298.204 119.074L300.258 121.127ZM320.991 107.189L322.13 109.86L322.147 109.853L322.163 109.845L320.991 107.189ZM371.866 107.189L370.694 109.845L370.711 109.853L370.727 109.86L371.866 107.189ZM406.538 141.861L403.867 143L403.874 143.016L403.882 143.033L406.538 141.861ZM406.538 192.736L403.882 191.564L403.874 191.58L403.867 191.597L406.538 192.736ZM392.6 213.469L394.653 215.523L394.653 215.523L392.6 213.469ZM371.866 227.582L373.006 230.253L373.022 230.246L373.039 230.239L371.866 227.582ZM320.991 227.582L319.819 230.239L319.835 230.246L319.852 230.253L320.991 227.582ZM300.258 213.469L298.204 215.523L298.204 215.523L300.258 213.469ZM286.145 192.736L283.474 193.875L283.481 193.892L283.488 193.908L286.145 192.736ZM300.78 186.638L298.106 187.769L298.119 187.801L298.133 187.832L300.78 186.638ZM311.408 202.319L309.329 204.345L309.355 204.372L309.382 204.398L311.408 202.319ZM327.089 212.772L325.939 215.439L325.948 215.443L325.958 215.447L327.089 212.772ZM365.594 212.772L366.726 215.447L366.726 215.447L365.594 212.772ZM381.275 202.319L383.328 204.372L383.342 204.359L383.355 204.345L381.275 202.319ZM391.729 186.638L389.073 185.463L389.068 185.475L389.062 185.488L391.729 186.638ZM391.729 148.133L389.054 149.264L389.064 149.286L389.073 149.307L391.729 148.133ZM381.275 132.452L383.328 130.399L383.328 130.399L381.275 132.452ZM365.594 121.998L364.42 124.654L364.441 124.663L364.463 124.673L365.594 121.998ZM327.089 121.998L328.239 124.665L328.252 124.659L328.264 124.654L327.089 121.998ZM311.408 132.452L309.382 130.372L309.368 130.385L309.355 130.399L311.408 132.452ZM300.78 148.133L298.125 146.958L298.115 146.98L298.106 147.001L300.78 148.133ZM281.092 167.298H283.996C283.996 158.608 285.61 150.518 288.816 143L286.145 141.861L283.474 140.721C279.943 149 278.188 157.869 278.188 167.298H281.092ZM286.145 141.861L288.802 143.033C292.146 135.452 296.649 128.843 302.311 123.18L300.258 121.127L298.204 119.074C292.019 125.259 287.113 132.472 283.488 140.688L286.145 141.861ZM300.258 121.127L302.311 123.18C307.966 117.526 314.564 113.086 322.13 109.86L320.991 107.189L319.852 104.518C311.621 108.028 304.397 112.881 298.204 119.074L300.258 121.127ZM320.991 107.189L322.163 109.845C329.674 106.532 337.752 104.866 346.429 104.866V101.962V99.0578C336.986 99.0578 328.105 100.876 319.819 104.532L320.991 107.189ZM346.429 101.962V104.866C355.106 104.866 363.183 106.532 370.694 109.845L371.866 107.189L373.039 104.532C364.753 100.876 355.872 99.0578 346.429 99.0578V101.962ZM371.866 107.189L370.727 109.86C378.293 113.086 384.892 117.526 390.547 123.18L392.6 121.127L394.653 119.074C388.46 112.881 381.237 108.028 373.006 104.518L371.866 107.189ZM392.6 121.127L390.547 123.18C396.201 128.835 400.641 135.434 403.867 143L406.538 141.861L409.209 140.721C405.699 132.49 400.846 125.267 394.653 119.074L392.6 121.127ZM406.538 141.861L403.882 143.033C407.195 150.544 408.861 158.621 408.861 167.298H411.765H414.669C414.669 157.855 412.851 148.974 409.195 140.688L406.538 141.861ZM411.765 167.298H408.861C408.861 175.975 407.195 184.053 403.882 191.564L406.538 192.736L409.195 193.908C412.851 185.622 414.669 176.741 414.669 167.298H411.765ZM406.538 192.736L403.867 191.597C400.641 199.163 396.201 205.761 390.547 211.416L392.6 213.469L394.653 215.523C400.846 209.33 405.699 202.106 409.209 193.875L406.538 192.736ZM392.6 213.469L390.547 211.416C384.884 217.078 378.274 221.581 370.694 224.925L371.866 227.582L373.039 230.239C381.255 226.614 388.468 221.708 394.653 215.523L392.6 213.469ZM371.866 227.582L370.727 224.911C363.209 228.117 355.119 229.731 346.429 229.731V232.635V235.539C355.858 235.539 364.727 233.784 373.006 230.253L371.866 227.582ZM346.429 232.635V229.731C337.738 229.731 329.649 228.117 322.13 224.911L320.991 227.582L319.852 230.253C328.13 233.784 336.999 235.539 346.429 235.539V232.635ZM320.991 227.582L322.163 224.925C314.583 221.581 307.973 217.078 302.311 211.416L300.258 213.469L298.204 215.523C304.39 221.708 311.602 226.614 319.819 230.239L320.991 227.582ZM300.258 213.469L302.311 211.416C296.649 205.754 292.146 199.144 288.802 191.564L286.145 192.736L283.488 193.908C287.113 202.125 292.019 209.337 298.204 215.523L300.258 213.469ZM286.145 192.736L288.816 191.597C285.61 184.078 283.996 175.989 283.996 167.298H281.092H278.188C278.188 176.728 279.943 185.597 283.474 193.875L286.145 192.736ZM296.947 167.298H294.043C294.043 174.522 295.392 181.355 298.106 187.769L300.78 186.638L303.455 185.506C301.058 179.84 299.851 173.78 299.851 167.298H296.947ZM300.78 186.638L298.133 187.832C300.94 194.055 304.672 199.566 309.329 204.345L311.408 202.319L313.488 200.292C309.317 196.011 305.964 191.068 303.427 185.444L300.78 186.638ZM311.408 202.319L309.382 204.398C314.171 209.065 319.696 212.746 325.939 215.439L327.089 212.772L328.239 210.106C322.634 207.688 317.706 204.4 313.435 200.239L311.408 202.319ZM327.089 212.772L325.958 215.447C332.372 218.16 339.205 219.509 346.429 219.509V216.606V213.702C339.947 213.702 333.887 212.495 328.221 210.098L327.089 212.772ZM346.429 216.606V219.509C353.544 219.509 360.318 218.158 366.726 215.447L365.594 212.772L364.463 210.098C358.791 212.498 352.788 213.702 346.429 213.702V216.606ZM365.594 212.772L366.726 215.447C373.092 212.753 378.637 209.063 383.328 204.372L381.275 202.319L379.222 200.265C375.085 204.401 370.176 207.681 364.463 210.098L365.594 212.772ZM381.275 202.319L383.355 204.345C388.021 199.556 391.702 194.031 394.395 187.788L391.729 186.638L389.062 185.488C386.645 191.093 383.357 196.021 379.195 200.292L381.275 202.319ZM391.729 186.638L394.384 187.812C397.226 181.388 398.64 174.54 398.64 167.298H395.736H392.832C392.832 173.762 391.575 179.807 389.073 185.463L391.729 186.638ZM395.736 167.298H398.64C398.64 160.165 397.223 153.376 394.384 146.958L391.729 148.133L389.073 149.307C391.578 154.97 392.832 160.958 392.832 167.298H395.736ZM391.729 148.133L394.403 147.001C391.71 140.635 388.02 135.09 383.328 130.399L381.275 132.452L379.222 134.505C383.358 138.642 386.637 143.551 389.054 149.264L391.729 148.133ZM381.275 132.452L383.328 130.399C378.637 125.707 373.092 122.017 366.726 119.324L365.594 121.998L364.463 124.673C370.176 127.09 375.085 130.369 379.222 134.505L381.275 132.452ZM365.594 121.998L366.769 119.343C360.351 116.504 353.562 115.087 346.429 115.087V117.991V120.895C352.769 120.895 358.757 122.149 364.42 124.654L365.594 121.998ZM346.429 117.991V115.087C339.187 115.087 332.339 116.501 325.915 119.343L327.089 121.998L328.264 124.654C333.92 122.152 339.965 120.895 346.429 120.895V117.991ZM327.089 121.998L325.939 119.332C319.696 122.025 314.171 125.706 309.382 130.372L311.408 132.452L313.435 134.532C317.706 130.37 322.634 127.082 328.239 124.665L327.089 121.998ZM311.408 132.452L309.355 130.399C304.674 135.08 300.933 140.61 298.125 146.958L300.78 148.133L303.436 149.307C305.971 143.576 309.316 138.652 313.462 134.505L311.408 132.452ZM300.78 148.133L298.106 147.001C295.395 153.409 294.043 160.183 294.043 167.298H296.947H299.851C299.851 160.939 301.055 154.936 303.455 149.264L300.78 148.133ZM552.643 101.962H555.547V99.0578H552.643V101.962ZM549.681 210.333L547.031 209.147L547.017 209.177L547.005 209.206L549.681 210.333ZM541.841 222.007L539.788 219.953L539.788 219.953L541.841 222.007ZM530.167 229.847L531.294 232.523L531.311 232.516L531.328 232.509L530.167 229.847ZM499.677 228.976L498.33 231.548L498.366 231.567L498.403 231.585L499.677 228.976ZM487.307 218.871L489.568 217.049L487.307 214.242L485.045 217.049L487.307 218.871ZM474.936 228.976L476.235 231.573L476.259 231.561L476.284 231.548L474.936 228.976ZM444.446 229.847L443.26 232.498L443.289 232.511L443.319 232.523L444.446 229.847ZM432.772 222.007L430.683 224.024L430.719 224.06L430.755 224.096L432.772 222.007ZM424.932 210.333L422.256 211.46L422.268 211.49L422.281 211.519L424.932 210.333ZM422.144 101.962V99.0578H419.24V101.962H422.144ZM437.999 101.962H440.903V99.0578H437.999V101.962ZM439.567 204.061L436.88 205.16L436.901 205.212L436.924 205.263L439.567 204.061ZM444.097 210.682L442.044 212.735L442.044 212.735L444.097 210.682ZM450.718 215.212L449.517 217.855L449.567 217.878L449.619 217.899L450.718 215.212ZM466.747 215.212L467.847 217.899L467.898 217.878L467.949 217.855L466.747 215.212ZM473.368 210.682L471.315 208.628L471.315 208.628L473.368 210.682ZM477.724 204.235L475.08 203.034L475.067 203.062L475.055 203.091L477.724 204.235ZM479.466 159.284V156.38H476.562V159.284H479.466ZM495.321 159.284H498.225V156.38H495.321V159.284ZM496.889 204.235L494.22 205.379L494.243 205.432L494.268 205.484L496.889 204.235ZM501.419 210.682L499.366 212.735L499.397 212.766L499.429 212.796L501.419 210.682ZM508.04 215.037L506.896 217.707L506.918 217.716L506.941 217.725L508.04 215.037ZM524.069 215.037L525.213 217.707L525.242 217.694L525.271 217.681L524.069 215.037ZM530.69 210.507L532.743 212.561L532.743 212.561L530.69 210.507ZM535.046 204.061L532.402 202.859L532.389 202.888L532.377 202.917L535.046 204.061ZM536.788 101.962V99.0578H533.884V101.962H536.788ZM552.643 101.962H549.739V196.046H552.643H555.547V101.962H552.643ZM552.643 196.046H549.739C549.739 200.772 548.829 205.128 547.031 209.147L549.681 210.333L552.332 211.519C554.483 206.711 555.547 201.542 555.547 196.046H552.643ZM549.681 210.333L547.005 209.206C545.291 213.276 542.889 216.852 539.788 219.953L541.841 222.007L543.894 224.06C547.53 220.424 550.354 216.218 552.358 211.46L549.681 210.333ZM541.841 222.007L539.788 219.953C536.811 222.93 533.229 225.345 529.007 227.185L530.167 229.847L531.328 232.509C536.166 230.4 540.366 227.588 543.894 224.06L541.841 222.007ZM530.167 229.847L529.041 227.171C524.999 228.873 520.679 229.731 516.055 229.731V232.635V235.539C521.419 235.539 526.508 234.538 531.294 232.523L530.167 229.847ZM516.055 232.635V229.731C510.543 229.731 505.523 228.599 500.951 226.367L499.677 228.976L498.403 231.585C503.82 234.231 509.719 235.539 516.055 235.539V232.635ZM499.677 228.976L501.024 226.404C496.49 224.028 492.68 220.912 489.568 217.049L487.307 218.871L485.045 220.692C488.67 225.192 493.107 228.813 498.33 231.548L499.677 228.976ZM487.307 218.871L485.045 217.049C481.933 220.912 478.124 224.028 473.589 226.404L474.936 228.976L476.284 231.548C481.506 228.813 485.943 225.192 489.568 220.692L487.307 218.871ZM474.936 228.976L473.638 226.379C469.196 228.599 464.245 229.731 458.733 229.731V232.635V235.539C465.068 235.539 470.919 234.231 476.235 231.573L474.936 228.976ZM458.733 232.635V229.731C453.983 229.731 449.606 228.869 445.573 227.171L444.446 229.847L443.319 232.523C448.113 234.542 453.261 235.539 458.733 235.539V232.635ZM444.446 229.847L445.632 227.196C441.515 225.355 437.908 222.928 434.789 219.918L432.772 222.007L430.755 224.096C434.374 227.59 438.549 230.39 443.26 232.498L444.446 229.847ZM432.772 222.007L434.861 219.99C431.851 216.872 429.424 213.264 427.583 209.147L424.932 210.333L422.281 211.519C424.389 216.23 427.189 220.405 430.683 224.024L432.772 222.007ZM424.932 210.333L427.608 209.206C425.91 205.173 425.048 200.796 425.048 196.046H422.144H419.24C419.24 201.518 420.237 206.666 422.256 211.46L424.932 210.333ZM422.144 196.046H425.048V101.962H422.144H419.24V196.046H422.144ZM422.144 101.962V104.866H437.999V101.962V99.0578H422.144V101.962ZM437.999 101.962H435.095V196.046H437.999H440.903V101.962H437.999ZM437.999 196.046H435.095C435.095 199.207 435.69 202.253 436.88 205.16L439.567 204.061L442.255 202.961C441.354 200.758 440.903 198.461 440.903 196.046H437.999ZM439.567 204.061L436.924 205.263C438.22 208.113 439.923 210.614 442.044 212.735L444.097 210.682L446.151 208.628C444.555 207.032 443.238 205.119 442.211 202.859L439.567 204.061ZM444.097 210.682L442.044 212.735C444.165 214.856 446.666 216.559 449.517 217.855L450.718 215.212L451.92 212.568C449.66 211.541 447.747 210.224 446.151 208.628L444.097 210.682ZM450.718 215.212L449.619 217.899C452.526 219.089 455.572 219.684 458.733 219.684V216.78V213.876C456.318 213.876 454.021 213.425 451.818 212.524L450.718 215.212ZM458.733 216.78V219.684C461.894 219.684 464.939 219.089 467.847 217.899L466.747 215.212L465.648 212.524C463.445 213.425 461.147 213.876 458.733 213.876V216.78ZM466.747 215.212L467.949 217.855C470.8 216.559 473.3 214.856 475.421 212.735L473.368 210.682L471.315 208.628C469.719 210.224 467.806 211.541 465.546 212.568L466.747 215.212ZM473.368 210.682L475.421 212.735C477.544 210.613 479.204 208.154 480.393 205.379L477.724 204.235L475.055 203.091C474.154 205.194 472.909 207.034 471.315 208.628L473.368 210.682ZM477.724 204.235L480.367 205.437C481.707 202.491 482.37 199.35 482.37 196.046H479.466H476.562C476.562 198.55 476.064 200.869 475.08 203.034L477.724 204.235ZM479.466 196.046H482.37V159.284H479.466H476.562V196.046H479.466ZM479.466 159.284V162.187H495.321V159.284V156.38H479.466V159.284ZM495.321 159.284H492.417V196.395H495.321H498.225V159.284H495.321ZM495.321 196.395H492.417C492.417 199.556 493.012 202.56 494.22 205.379L496.889 204.235L499.558 203.091C498.676 201.032 498.225 198.809 498.225 196.395H495.321ZM496.889 204.235L494.268 205.484C495.567 208.213 497.267 210.636 499.366 212.735L501.419 210.682L503.473 208.628C501.855 207.01 500.534 205.136 499.511 202.987L496.889 204.235ZM501.419 210.682L499.429 212.796C501.646 214.882 504.138 216.524 506.896 217.707L508.04 215.037L509.184 212.368C507.064 211.46 505.142 210.198 503.41 208.567L501.419 210.682ZM508.04 215.037L506.941 217.725C509.848 218.915 512.894 219.509 516.055 219.509V216.606V213.702C513.64 213.702 511.343 213.251 509.14 212.35L508.04 215.037ZM516.055 216.606V219.509C519.314 219.509 522.38 218.921 525.213 217.707L524.069 215.037L522.925 212.368C520.88 213.245 518.603 213.702 516.055 213.702V216.606ZM524.069 215.037L525.271 217.681C528.122 216.385 530.622 214.682 532.743 212.561L530.69 210.507L528.637 208.454C527.041 210.05 525.128 211.367 522.868 212.394L524.069 215.037ZM530.69 210.507L532.743 212.561C534.866 210.439 536.525 207.98 537.715 205.205L535.046 204.061L532.377 202.917C531.475 205.02 530.231 206.859 528.637 208.454L530.69 210.507ZM535.046 204.061L537.689 205.263C539.021 202.332 539.692 199.251 539.692 196.046H536.788H533.884C533.884 198.417 533.394 200.679 532.402 202.859L535.046 204.061ZM536.788 196.046H539.692V101.962H536.788H533.884V196.046H536.788ZM536.788 101.962V104.866H552.643V101.962V99.0578H536.788V101.962ZM677.322 210.333L679.5 212.253L681.433 210.06L679.227 208.142L677.322 210.333ZM655.717 226.711L656.957 229.337L656.972 229.33L656.987 229.323L655.717 226.711ZM602.925 227.582L601.753 230.239L601.769 230.246L601.786 230.253L602.925 227.582ZM582.192 213.469L580.138 215.523L580.138 215.523L582.192 213.469ZM568.079 192.736L565.408 193.875L565.415 193.892L565.422 193.908L568.079 192.736ZM563.026 102.136V99.2321H560.122V102.136H563.026ZM578.881 102.136H581.785V99.2321H578.881V102.136ZM582.714 186.638L580.04 187.769L580.053 187.801L580.067 187.832L582.714 186.638ZM593.342 202.319L591.263 204.345L591.289 204.372L591.316 204.398L593.342 202.319ZM609.023 212.947L607.829 215.594L607.86 215.608L607.892 215.621L609.023 212.947ZM648.922 212.25L647.681 209.624L647.672 209.629L647.662 209.633L648.922 212.25ZM665.3 199.879L667.205 197.688L665.01 195.78L663.105 197.978L665.3 199.879ZM677.322 210.333L675.143 208.413C669.362 214.973 662.471 220.199 654.447 224.099L655.717 226.711L656.987 229.323C665.689 225.092 673.201 219.4 679.5 212.253L677.322 210.333ZM655.717 226.711L654.477 224.085C646.528 227.839 637.837 229.731 628.363 229.731V232.635V235.539C638.635 235.539 648.18 233.481 656.957 229.337L655.717 226.711ZM628.363 232.635V229.731C619.672 229.731 611.583 228.117 604.064 224.911L602.925 227.582L601.786 230.253C610.064 233.784 618.933 235.539 628.363 235.539V232.635ZM602.925 227.582L604.097 224.925C596.517 221.581 589.907 217.078 584.245 211.416L582.192 213.469L580.138 215.523C586.324 221.708 593.536 226.614 601.753 230.239L602.925 227.582ZM582.192 213.469L584.245 211.416C578.583 205.754 574.08 199.144 570.736 191.564L568.079 192.736L565.422 193.908C569.047 202.125 573.953 209.337 580.138 215.523L582.192 213.469ZM568.079 192.736L570.75 191.597C567.544 184.078 565.93 175.989 565.93 167.298H563.026H560.122C560.122 176.728 561.877 185.597 565.408 193.875L568.079 192.736ZM563.026 167.298H565.93V102.136H563.026H560.122V167.298H563.026ZM563.026 102.136V105.04H578.881V102.136V99.2321H563.026V102.136ZM578.881 102.136H575.977V167.298H578.881H581.785V102.136H578.881ZM578.881 167.298H575.977C575.977 174.522 577.326 181.355 580.04 187.769L582.714 186.638L585.389 185.506C582.992 179.84 581.785 173.78 581.785 167.298H578.881ZM582.714 186.638L580.067 187.832C582.874 194.055 586.606 199.566 591.263 204.345L593.342 202.319L595.422 200.292C591.251 196.011 587.898 191.068 585.361 185.444L582.714 186.638ZM593.342 202.319L591.316 204.398C596.095 209.055 601.606 212.787 607.829 215.594L609.023 212.947L610.217 210.3C604.593 207.763 599.65 204.41 595.369 200.239L593.342 202.319ZM609.023 212.947L607.892 215.621C614.306 218.335 621.139 219.684 628.363 219.684V216.78V213.876C621.881 213.876 615.821 212.669 610.155 210.272L609.023 212.947ZM628.363 216.78V219.684C636.203 219.684 643.49 218.088 650.182 214.866L648.922 212.25L647.662 209.633C641.809 212.451 635.391 213.876 628.363 213.876V216.78ZM648.922 212.25L650.163 214.875C656.908 211.687 662.694 207.32 667.494 201.781L665.3 199.879L663.105 197.978C658.845 202.893 653.713 206.773 647.681 209.624L648.922 212.25ZM665.3 199.879L663.394 202.071L675.416 212.524L677.322 210.333L679.227 208.142L667.205 197.688L665.3 199.879Z" fill="white" mask="url(#path-1-outside-1_630_80)"/>
<path d="M165.586 99.0801C165.586 91.1118 169.048 83.4699 175.211 77.8354C181.373 72.201 189.732 69.0356 198.447 69.0356C207.162 69.0356 215.52 72.201 221.683 77.8354M165.586 99.0801C165.586 91.1118 162.124 83.4699 155.961 77.8354C149.798 72.201 141.44 69.0356 132.725 69.0356C124.009 69.0356 115.651 72.201 109.488 77.8354M165.586 99.0801V106.591" stroke="white" stroke-width="15.6481" stroke-linecap="round" stroke-linejoin="round"/>
<path fill-rule="evenodd" clip-rule="evenodd" d="M163.825 272.461C214.486 214.563 243.435 164.453 243.435 120.479C243.435 99.3652 235.048 79.1161 220.118 64.1863C205.188 49.2566 184.939 40.8691 163.825 40.8691C142.711 40.8691 122.462 49.2566 107.533 64.1863C92.6028 79.1161 84.2154 99.3652 84.2154 120.479C84.2154 164.453 113.164 214.563 163.825 272.461ZM208.28 166.499C220.019 154.761 226.613 138.84 226.613 122.239C226.613 105.639 220.019 89.7182 208.28 77.9798C196.542 66.2414 180.621 59.6469 164.021 59.6469C147.42 59.6469 131.5 66.2414 119.761 77.9798C108.023 89.7182 101.428 105.639 101.428 122.239C101.428 138.84 108.023 154.761 119.761 166.499C131.5 178.237 147.42 184.832 164.021 184.832C180.621 184.832 196.542 178.237 208.28 166.499ZM172.595 262.258C169.749 265.632 166.825 269.033 163.825 272.461C160.828 269.036 157.907 265.638 155.063 262.267C156.341 253.194 155.889 243.874 153.629 234.811C149.011 216.287 137.223 200.357 120.859 190.525C114.447 186.672 107.538 183.879 100.391 182.185C98.1346 177.524 96.1046 172.924 94.3074 168.383C105.872 169.834 117.123 173.675 127.306 179.794C144.532 190.145 157.438 206.251 163.83 225.147C170.221 206.251 183.127 190.145 200.353 179.794C210.534 173.677 221.782 169.836 233.343 168.384C231.545 172.925 229.515 177.526 227.258 182.187C220.115 183.882 213.21 186.674 206.8 190.525C190.437 200.357 178.649 216.287 174.03 234.811C171.772 243.871 171.318 253.188 172.595 262.258Z" fill="white"/>
<path d="M140.549 106.592C140.549 109.082 139.56 111.47 137.799 113.23C136.038 114.991 133.65 115.98 131.16 115.98C128.67 115.98 126.282 114.991 124.521 113.23C122.76 111.47 121.771 109.082 121.771 106.592C121.771 104.101 122.76 101.713 124.521 99.9526C126.282 98.1918 128.67 97.2026 131.16 97.2026C133.65 97.2026 136.038 98.1918 137.799 99.9526C139.56 101.713 140.549 104.101 140.549 106.592Z" fill="white" stroke="white" stroke-width="6.25925" stroke-linejoin="round"/>
<path d="M209.4 106.592C209.4 109.082 208.411 111.47 206.651 113.23C204.89 114.991 202.502 115.98 200.012 115.98C197.522 115.98 195.133 114.991 193.373 113.23C191.612 111.47 190.623 109.082 190.623 106.592C190.623 104.101 191.612 101.713 193.373 99.9526C195.133 98.1918 197.522 97.2026 200.012 97.2026C202.502 97.2026 204.89 98.1918 206.651 99.9526C208.411 101.713 209.4 104.101 209.4 106.592Z" fill="white" stroke="white" stroke-width="6.25925" stroke-linejoin="round"/>
<path d="M170.28 107.765C170.28 110.142 168.573 112.851 165.586 115.98C162.598 112.851 160.891 110.142 160.891 107.765C160.891 106.624 161.386 105.529 162.266 104.722C163.147 103.915 164.341 103.462 165.586 103.462C166.831 103.462 168.025 103.915 168.905 104.722C169.786 105.529 170.28 106.624 170.28 107.765Z" fill="white" stroke="white" stroke-width="6.25925" stroke-linejoin="round"/>
</svg>
